REM MD5 d013b417ef7175fb8ef43f37a6042f3c
FILE "Euro Demo 09 (France).bin" BINARY
  TRACK 01 MODE2/2352
    INDEX 01 00:00:00
  TRACK 02 AUDIO
    INDEX 00 13:56:67
    INDEX 01 13:58:67
  TRACK 03 AUDIO
    INDEX 00 15:01:54
    INDEX 01 15:03:54
REM LEADOUT 18:13:63
